<?xml version="1.0" encoding="iso-8859-1"?>
<!-- Generator: Adobe Illustrator 19.0.0, SVG Export Plug-In . SVG Version: 6.00 Build 0)  -->
<svg version="1.1" id="Layer_1" xmlns="http://www.w3.org/2000/svg" xmlns:xlink="http://www.w3.org/1999/xlink" x="0px" y="0px"
	 viewBox="0 0 511.996 511.996" style="enable-background:new 0 0 511.996 511.996;" xml:space="preserve">
<polygon style="fill:#E9573F;" points="440.248,123.246 431.498,65.246 412.248,47.246 280.748,89.996 285.498,136.996 
	314.248,187.949 334.998,212.246 350.748,219.746 435.998,187.949 444.248,173.246 "/>
<polygon style="fill:#FFCE54;" points="77.998,306.996 73.998,367.996 98.998,426.996 136.998,476.996 170.998,501.996 
	329.998,495.996 358.998,489.996 391.998,460.996 423.998,405.34 435.998,359.996 435.998,306.996 "/>
<path style="fill:#A0D468;" d="M211.662,180.324c-1.336-2.672-10.664-13-12.664-14s-23-13.656-23-13.656l-9-18l-28.336-20.438
	l-31,9.438l-13,9.656l-22.328,27l-7.336,23.672l5,37l27,15.672l24.664,23.656l32.336,1.344l27-12.344l28-20.859l6.664-27.812
	C215.662,200.652,212.998,182.996,211.662,180.324z"/>
<path style="fill:#FC6E51;" d="M412.498,100.246l-28.75-45l-75.25,18.25v31l16.5,43.25c0,0,15.25,24.75,23,40.203
	s20.25,23.047,20.25,23.047l34.375-3.5l18.875-21.75L412.498,100.246z"/>
<g>
	<path style="fill:#080808;" d="M85.475,245.184c8.117,21.438,30.422,32.156,54.992,32.156c21.945,0,45.688-8.547,62.758-25.625
		c33.531-33.531,36.406-79.469-5.688-102.562c9.242-5.016,24.422-5.219,30.023-4.766c5.859,0.484,11.023-3.859,11.523-9.719
		c0.508-5.859-3.844-11.031-9.711-11.547c-3.398-0.281-30.445-2.125-47.422,10.797c-11.758-21.984-29.656-32.016-48.844-32.016
		c-18.273,0-37.711,9.078-54.164,25.531C42.748,163.621,44.904,229.809,85.475,245.184z M77.365,171.309
		c3.195-11.125,8.961-21.094,16.656-28.781c12.258-12.25,26.5-19.281,39.086-19.281c18.586,0,28.531,15.531,33.609,28.562
		l3.398,8.734l8.742,3.406c11.031,4.297,24.828,12.484,27.914,27.188c2.922,13.906-4.047,30.922-18.625,45.5
		c-12.125,12.125-29.953,19.359-47.68,19.359c-8.93,0-16.992-1.844-23.32-5.359c-5.703-3.172-9.648-7.547-11.719-13.016
		l-3.406-8.969l-8.992-3.406c-6.047-2.312-13.938-8.172-17.148-23.109C73.85,192.684,74.381,181.746,77.365,171.309z"/>
	<path style="fill:#080808;" d="M349.232,228.465c2.516,0,4.984-0.375,7.406-1.188l6.844-2.25c3,1.531,5.938,2.375,8.75,2.375
		c1.422,0,2.797-0.219,4.141-0.656l42.422-14.031c3.766-1.25,6.609-4.375,8.703-8.859l7.609-2.516
		c46.016-15.219,16.688-163.984-20.438-163.984c-1.5,0-3,0.234-4.516,0.734l-18.672,6.188c-2.703-1.375-5.656-2.141-8.859-2.141
		c-2.359,0-4.875,0.422-7.547,1.297L351.2,51.325c-0.453-1.297-0.891-2.734-1.219-4.297c-2.094-10.062,0.641-20.094,8.172-29.844
		c3.594-4.656,2.734-11.359-1.922-14.969c-4.672-3.594-11.359-2.719-14.969,1.938c-14.344,18.578-14.531,35.953-12.156,47.25
		c0.5,2.375,1.141,4.594,1.828,6.625l-20.359,6.719c-6.953,2.312-11.281,6.016-13.703,10.812l-17.484,5.781
		C242.06,93.668,301.967,228.465,349.232,228.465z M315.81,85.59c0.297-0.141,0.766-0.344,1.453-0.578l27.453-9.078
		c0.625,0.125,1.266,0.188,1.891,0.188c2.328,0,4.656-0.75,6.625-2.312c0.422-0.328,0.781-0.688,1.141-1.062l27.406-9.062
		c0.156-0.062,0.297-0.094,0.422-0.125c0.953,0.75,3.625,3.406,7.25,11.109c3.844,8.203,7.062,18.516,9.906,27.625
		c1.031,3.328,2.016,6.453,3.016,9.484c2.938,8.906,6.766,27.312,8.188,46.719c1.484,20.219-0.422,30.969-1.859,35.094l-36.328,12
		c-3.266-1.984-10.703-8.5-20.688-24.047c-9.016-14.031-17.531-31.516-22.203-45.656c-1.391-4.234-2.859-8.422-4.266-12.484
		c-3.422-9.875-6.656-19.188-8.359-26.969C315.404,89.777,315.623,86.715,315.81,85.59z M413.592,59.434
		c1.297,1.312,3.391,3.844,5.984,8.469c3.797,6.75,7.328,15.625,10.234,25.703c6.172,21.359,8.766,45.078,6.969,63.484
		c-0.875,8.875-2.625,14.938-4.391,18.75c0.562-24.969-4.828-55.844-9.766-70.75c-4.219-12.766-8.812-30.156-15.812-43.406
		L413.592,59.434z M292.998,126.949c-4.156-14.141-4.266-22.703-3.734-26.422l6.234-2.062c2.5,13.094,8.578,28.5,13.734,44.125
		c6.094,18.438,18.359,43.141,31.875,61.125c-1.406-0.922-2.969-2.094-4.734-3.594c-6.875-5.812-14.141-14.5-21.031-25.125
		C305.764,160.215,297.623,142.715,292.998,126.949z"/>
	<path style="fill:#080808;" d="M437.326,298.668H74.662c-5.891,0-10.664,4.766-10.664,10.672v32
		c0,70.969,38.922,135.891,101.578,169.406c1.547,0.812,3.281,1.25,5.031,1.25h170.781c1.75,0,3.484-0.438,5.031-1.25
		c62.657-33.516,101.579-98.437,101.579-169.406v-32C447.998,303.434,443.217,298.668,437.326,298.668z M426.67,341.34
		c0,62.219-33.656,119.188-88,149.328H173.326c-54.352-30.141-88-87.109-88-149.328v-21.344h10.57
		c0.266,11.406,1.664,30.312,7.164,51.969c11.75,46.25,36.797,83,72.43,106.297c1.805,1.172,3.828,1.734,5.828,1.734
		c3.484,0,6.891-1.688,8.938-4.828c3.227-4.922,1.844-11.547-3.094-14.766c-17.18-11.234-31.531-25.984-42.641-43.844
		c-9-14.469-15.938-31.031-20.617-49.219c-5.055-19.625-6.375-37-6.648-47.344H426.67V341.34z"/>
</g>
<g>
</g>
<g>
</g>
<g>
</g>
<g>
</g>
<g>
</g>
<g>
</g>
<g>
</g>
<g>
</g>
<g>
</g>
<g>
</g>
<g>
</g>
<g>
</g>
<g>
</g>
<g>
</g>
<g>
</g>
</svg>
